#N canvas 628 85 1272 636 12;
#X obj 100 100 moses 128;
#X obj 100 129 t b f;
#X obj 100 198 vs.group 10;
#X obj 100 227 unpack 0 0 0;
#X obj 100 300 << 7;
#X obj 100 329 & 16256;
#X obj 100 260 - 128;
#X obj 200 260 - 128;
#X obj 200 329 & 127;
#X obj 100 368 +;
#X obj 100 40 comport 0 9600;
#X obj 100 429 swap;
#X obj 100 460 pack 0 0;
#X floatatom 340 90 5 0 0 0 - - -, f 5;
#X obj 100 489 route 0;
#X obj 340 120 nbx 7 100 -1e+37 1e+37 0 0 empty empty empty 0 -8 0
10 #fcfcfc #000000 #000000 1668 256 0;
#X connect 0 0 1 0;
#X connect 0 1 2 0;
#X connect 1 0 2 0;
#X connect 1 1 2 0;
#X connect 2 0 3 0;
#X connect 3 0 6 0;
#X connect 3 1 7 0;
#X connect 3 2 11 1;
#X connect 4 0 5 0;
#X connect 5 0 9 0;
#X connect 6 0 4 0;
#X connect 7 0 8 0;
#X connect 8 0 9 1;
#X connect 9 0 11 0;
#X connect 10 0 0 0;
#X connect 11 0 12 0;
#X connect 11 1 12 1;
#X connect 12 0 14 0;
#X connect 14 0 15 0;
